# xmcd
#
# Track frame offsets:
#	150
#	14253
#	36471
#	57479
#	72647
#	85510
#	96538
#	115306
#	128749
#	145942
#	165520
#
# Disc length: 2304 seconds
#
# Revision: 1
# Processed by: cddbd v1.4PL0 Copyright (c) Steve Scherf et al.
# Submitted via: audiograbber 1.81.03
#
DISCID=9c08fe0b
DTITLE=Rock Bottom - Rare and Unissued
DYEAR=1980
DGENRE=Blues
TTITLE0=Pickled Okra
TTITLE1=Large Women
TTITLE2=It's My Own Fault
TTITLE3=Hank Ballard Stole My Date
TTITLE4=B.D. `n Me
TTITLE5=Hate To See You Go
TTITLE6=Rattlesnake
TTITLE7=Blind Lemon's Grave
TTITLE8=Comin' Home
TTITLE9=A Little Itchy
TTITLE10=Stompin' the Jook
EXTD=
EXTT0=
EXTT1=
EXTT2=
EXTT3=
EXTT4=
EXTT5=
EXTT6=
EXTT7=
EXTT8=
EXTT9=
EXTT10=
PLAYORDER=
